# xmcd
#
# Track frame offsets:
#	150
#	9724
#	19564
#	32138
#	42317
#	55287
#	68035
#	78426
#	88199
#	100367
#	111531
#	120557
#	131926
#	142682
#	153157
#	166877
#	178189
#	190681
#	200848
#	211886
#	224694
#	235283
#	246709
#	256907
#	269120
#	279542
#	291549
#	301323
#	311289
#
# Disc length: 4335 seconds
#
# Revision: 1
# Processed by: cddbd v1.5.2PL0 Copyright (c) Steve Scherf et al.
# Submitted via: audiograbber 1.83.01
#
DISCID=be10ed1d
DTITLE=Various Artist - West Coast Soul 2 - Call On Me [CD1)
DYEAR=2016
DGENRE=Soul
TTITLE0=Little Mary Staten - Steppin' Stone
TTITLE1=Ray Agee - Leave Me Alone
TTITLE2=Carlson Oliver - Change Your Mind
TTITLE3=Utopians - Let Love Come Later
TTITLE4=Larry Williams - Call on me
TTITLE5=The New Yorkers - You Should Have Told Me
TTITLE6=Jackie Hines - I'm So Glad
TTITLE7=Shank and Maydiea - Why Don't You Tell Me
TTITLE8=Johnnie Morisette - Don't Throw Your Love On Me So Strong
TTITLE9=Bobby Angelle - Girl You're So Fine
TTITLE10=Betty Harris - Yesterday's Kisses
TTITLE11=Lula Reed - Baby Baby Your Love-cr
TTITLE12=Tommy Dodson - Mind Reader
TTITLE13=Art Wheeler - Walk On
TTITLE14=The Rivingtons - Deep Water
TTITLE15=Alexander Patton - I Knew It Was Wrong
TTITLE16=Ella Thomas - Thing Called Love
TTITLE17=Big J.D. Wright - Now She Wants To Leave
TTITLE18=Donoman - I'm The One
TTITLE19=Terry and Marsha - It's A Possibility
TTITLE20=The Pearlettes - Can I Get Him
TTITLE21=The Chesterfields - You Walked Away
TTITLE22=Jimmy Lewis - Goodbye Sorrow
TTITLE23=Bobby Taylor - Stop Dragging My Heart Around
TTITLE24=Joe Phillips - Can't Help But To Love You
TTITLE25=Gus Jenkins - Gonna Take Time
TTITLE26=Big Daddy Rucker - If You Have It
TTITLE27=C.C. Griffin - I Want To Be With You
TTITLE28=Lou Rawls and Les McCann - Sweet Lover
EXTD=
EXTT0=
EXTT1=
EXTT2=
EXTT3=
EXTT4=
EXTT5=
EXTT6=
EXTT7=
EXTT8=
EXTT9=
EXTT10=
EXTT11=
EXTT12=
EXTT13=
EXTT14=
EXTT15=
EXTT16=
EXTT17=
EXTT18=
EXTT19=
EXTT20=
EXTT21=
EXTT22=
EXTT23=
EXTT24=
EXTT25=
EXTT26=
EXTT27=
EXTT28=
PLAYORDER=
